# xmcd CD database file
#
# Track frame offsets:
#	187
#	21044
#	46524
#
# Disc length: 896 seconds
#
# Revision: 0
# Processed by: cddbd v1.5PL3 Copyright (c) Steve Scherf et al.
# Submitted via: CDex 1.50beta9
#
DISCID=14037e03
DTITLE=観月ありさ - happy wake up !
DYEAR=1994
DGENRE=Japanese Pop
TTITLE0=happy wake up !
TTITLE1=Close to you
TTITLE2=happy wake up ! （オリジナルカラオケ）
EXTD=YEAR: 1994
EXTT0=
EXTT1=
EXTT2=
PLAYORDER=
